<svg width="54" height="50" viewBox="0 0 54 50" fill="none" xmlns="http://www.w3.org/2000/svg">
<path d="M12.2483 49.329C4.86578 44.631 0 36.2417 0 26.8457C0 13.1077 10.7116 1.69372 24.0598 0.172241V0.506563L23.8065 2.03043C11.4696 3.54016 1.84564 14.1156 1.84564 26.8457C1.84564 35.7383 6.54363 43.4565 13.4228 47.8189C12.9195 48.3223 12.5839 48.8256 12.2483 49.329Z" fill="#FF9701"/>
<path d="M40.2685 47.8189C47.1477 43.4565 51.8457 35.7383 51.8457 26.8457C51.8457 14.1156 42.2217 3.54016 29.8848 2.03043L29.6315 0.506563V0.172241C42.9798 1.69372 53.6914 13.1077 53.6914 26.8457C53.6914 36.2417 48.8256 44.631 41.443 49.329C41.1074 48.8256 40.7719 48.3223 40.2685 47.8189Z" fill="#FF9701"/>
<path d="M26.8454 43.9597C19.9662 43.9597 14.0937 46.3087 12.248 49.3289C12.248 49.3289 12.7514 49.6644 13.7581 49.8322C16.4427 47.651 21.3085 46.1409 26.8454 46.1409C32.5501 46.1409 37.5837 47.651 40.1004 50C40.7716 49.8322 41.2749 49.4966 41.4427 49.4966C39.5971 46.3087 33.7246 43.9597 26.8454 43.9597Z" fill="#FF9701"/>
<path d="M34.5704 20.2814C30.6552 16.3662 24.0112 16.129 20.3333 19.8069C17.3672 22.7729 16.5367 27.1627 17.9605 30.7219L17.7232 30.7219L17.6045 30.8406C17.4859 30.9592 17.4859 31.1965 17.4859 31.4338C17.6045 31.7897 17.9605 31.9084 18.0791 31.7897L18.435 31.6711C18.9096 32.3829 19.2655 32.9761 19.8587 33.5694C25.3163 39.0269 30.8925 37.2473 34.2144 33.9253C38.1296 30.2474 38.3669 24.078 34.5704 20.2814ZM33.5026 33.2134C29.5874 37.1286 24.7231 37.01 20.5706 32.8575C20.096 32.3829 19.7401 31.7897 19.5028 31.3152L21.9943 30.4847C22.2316 30.9592 22.5875 31.3152 22.9434 31.6711C25.4349 34.1626 29.3501 34.0439 31.723 31.6711C34.2144 29.1796 34.0958 25.2644 31.723 22.8916C29.2315 20.4001 25.3163 20.5187 22.9434 22.8916C21.1638 24.6712 20.6892 27.2813 21.5197 29.5355L19.0282 30.366C17.7232 27.1627 18.5537 23.2475 21.2824 20.5187C24.4858 17.3154 30.4179 17.5527 33.9772 21.1119C37.1805 24.3153 36.9432 29.7728 33.5026 33.2134ZM24.7231 28.4677L22.3502 29.1796C21.6384 27.2813 22.1129 25.1458 23.5366 23.7221C25.5536 21.7051 28.8755 21.7051 30.8925 23.7221C32.9094 25.739 32.9094 29.061 30.8925 31.0779C28.8755 33.0948 25.5536 33.0948 23.5366 31.0779C23.2994 30.8406 23.0621 30.6033 22.9434 30.2474L25.079 29.5355C25.4349 29.4169 25.5536 29.061 25.4349 28.9423C25.4349 28.4677 25.079 28.3491 24.7231 28.4677Z" fill="#FF9701"/>
<path d="M1.18446 24.8265C2.98609 10.6526 10.9908 2.43173 23.8063 1.18073C24.9489 1.06919 26.1299 1.01306 27.348 1.01306C28.189 1.01306 29.0361 1.07484 29.8846 1.19373C41.4097 2.80869 53.1846 14.9623 53.1846 25.9761C53.1846 35.83 48.4424 44.5342 40.5933 49.1327C40.5933 48.4757 40.4298 48.8042 39.7757 48.1473C46.9707 43.8773 51.7129 35.0088 51.7129 25.9761C51.7129 20.0638 47.7883 12.6734 42.3921 8.07498L40.2663 10.8669C45.0085 14.8084 48.2789 20.3923 48.2789 27.1258C48.2789 35.5015 44.1908 42.235 37.4864 45.6838C37.1594 45.5196 36.6688 45.1911 36.1782 45.0269C36.9959 44.6984 37.8135 44.2058 38.6311 43.7131L36.3418 41.4138C34.543 42.5634 32.5808 43.3846 30.2914 43.8773C29.1468 43.7131 28.0021 43.7131 26.6939 43.7131C25.5493 43.7131 24.2411 43.7131 23.26 43.8773C19.3354 43.0561 15.9015 41.0854 13.2851 38.1292C10.1782 34.5161 8.87001 30.0819 9.5241 25.6477C9.68762 24.1696 10.0147 22.8558 10.3417 21.5419L7.72535 20.0638C7.23479 21.7061 6.74421 23.5127 6.58069 25.4834C5.9266 30.7388 7.39831 35.83 10.9958 39.9358C12.9581 42.0708 15.7379 44.0415 18.1908 45.1911C17.7002 45.3554 17.0461 45.8481 16.7191 46.0123C14.4298 44.6984 11.9769 42.5634 10.1782 40.5927C6.41718 36.1584 4.78195 30.7388 5.43604 25.155C5.76308 23.02 6.25365 21.0492 6.74422 19.2427L4.12786 18.2573C3.47377 20.3923 2.65615 22.8558 2.32911 25.3192C1.5115 31.3958 4.12786 37.965 8.37944 42.7277C10.0147 44.6984 11.9769 46.3408 14.1027 47.6546C13.4486 48.3115 13.4486 47.9831 13.4486 48.64C10.9958 47.1619 8.87001 45.5196 7.07126 43.3846C2.49264 38.1292 0.366844 31.56 1.18446 24.8265ZM39.6122 43.0561C44.3544 39.6073 47.2978 34.0234 47.2978 27.1258C47.2978 21.0492 44.0273 15.6296 39.6122 11.8523L38.304 13.4946C41.9015 16.4508 44.3544 20.7208 44.3544 25.9761C44.3544 32.0527 41.5745 37.3081 37.3229 40.5927L39.6122 43.0561ZM36.5053 39.9358C40.5933 36.9796 43.2097 31.8884 43.2097 26.1404C43.2097 21.2134 40.9204 17.1077 37.6499 14.48L36.0147 16.615C38.7946 19.2427 40.5933 22.8558 40.5933 26.9615C40.5933 31.7242 38.304 35.83 34.8701 38.2934L36.5053 39.9358ZM33.3984 18.0931L34.543 16.615C32.2537 14.8084 29.6374 13.8231 26.5304 13.8231C18.8449 13.8231 14.1027 19.5711 14.1027 28.7681C14.1027 32.8738 19.9895 39.4431 27.021 39.4431C29.3103 39.4431 31.2726 38.9504 33.0713 37.965L32.4172 37.3081C32.2537 37.1438 32.2537 36.8154 32.4172 36.4869C32.5808 36.3227 32.9078 36.3227 33.2348 36.4869L34.0525 37.3081C37.4864 35.1731 39.6122 31.2315 39.6122 26.7973C39.6122 23.02 37.977 19.5711 35.5242 17.2719L34.3795 18.5858C34.216 18.75 34.0525 18.75 33.8889 18.75C33.7254 18.75 33.7254 18.75 33.5619 18.5858C33.2348 18.5858 33.2348 18.2573 33.3984 18.0931ZM14.1027 37.3081C17.2096 40.9211 21.9518 43.0561 26.6939 43.0561C29.9644 43.0561 32.9078 42.0708 35.3606 40.5927L33.5619 38.7861C31.5996 39.9358 29.3103 40.5927 26.6939 40.5927C18.8449 40.5927 12.631 33.5308 12.631 28.9323C12.631 19.2427 18.0273 12.8377 26.2034 12.8377C29.4738 12.8377 32.4172 13.9873 34.8701 15.7938L36.5053 13.8231C33.5619 11.6881 30.1279 10.7027 26.6939 10.7027C26.5304 10.7027 26.2034 10.7027 26.0399 10.7027C18.5178 11.0311 13.7757 14.3158 11.4864 20.885L12.1405 21.2134C12.4675 21.3777 12.4675 21.7061 12.304 22.0346C12.1405 22.1988 11.9769 22.3631 11.8134 22.3631C11.6499 22.3631 11.6499 22.3631 11.4864 22.3631L10.9958 22.0346C10.6688 23.1842 10.3417 24.4981 10.1782 25.8119C10.0147 29.7534 11.3228 33.8592 14.1027 37.3081ZM10.6688 20.2281C13.1216 13.3304 18.1908 9.88152 26.0399 9.38883C26.3669 9.38883 26.5304 9.38883 26.8575 9.38883C30.455 9.38883 34.216 10.5384 37.3229 12.8377L38.6311 11.1954C34.8701 8.23921 30.2914 6.59691 25.8763 6.59691C16.8826 6.59691 10.8323 10.7027 7.88887 18.75L10.6688 20.2281ZM7.23478 18.2573C10.1782 9.88152 16.7191 5.44729 26.0399 5.44729C30.6185 5.44729 35.3606 7.25383 39.4487 10.21L41.5745 7.25383C38.2591 4.72321 33.8682 2.62466 29.8846 1.92179C28.9562 1.75799 28.0499 1.66998 27.1845 1.66998C26.0267 1.66998 24.8999 1.73785 23.8063 1.87009C14.5515 2.98917 7.67221 8.71845 4.45491 16.9434L7.23478 18.2573Z" fill="#FF9701"/>
<path d="M23.2998 0.50647V11.65H30.3911V0.50647" stroke="#FF9701" stroke-width="3"/>
<rect x="23.8066" width="6.07827" height="11.1435" fill="white"/>
</svg>
